<svg width="1440" height="3181" viewBox="0 0 1440 3181" fill="none" xmlns="http://www.w3.org/2000/svg">
<rect width="1440" height="2320" fill="url(#paint0_linear_116_16)"/>
<path d="M1416 2241.97L1440 2238.19V3181H0V2266.32L24 2267.36C48 2268.27 96 2270.1 144 2267.36C170.182 2265.8 196.364 2262.84 222.545 2259.88C244.364 2257.42 266.182 2254.95 288 2253.3C315.294 2251.15 342.588 2250.22 369.882 2249.3C390.588 2248.59 411.294 2247.89 432 2246.66C448.478 2245.72 464.955 2244.43 481.433 2243.13C512.955 2240.66 544.478 2238.19 576 2238.19C611.2 2238.19 646.4 2241.27 681.6 2244.35C694.4 2245.47 707.2 2246.6 720 2247.57C768 2251.34 816 2253.3 864 2250.43C888 2249 912 2246.43 936 2243.86C960 2241.28 984 2238.71 1008 2237.28C1056 2234.55 1104 2236.37 1152 2241.06C1165.2 2242.35 1178.4 2243.85 1191.6 2245.36C1226.4 2249.33 1261.2 2253.3 1296 2253.3C1344 2253.3 1392 2245.74 1416 2241.97Z" fill="url(#paint1_linear_116_16)"/>
<defs>
<linearGradient id="paint0_linear_116_16" x1="1058" y1="2320" x2="468.575" y2="150.255" gradientUnits="userSpaceOnUse">
<stop offset="0.0978616" stop-color="#19009E"/>
<stop offset="0.715486" stop-color="#701CDC"/>
<stop offset="1" stop-color="#1C97DC"/>
</linearGradient>
<linearGradient id="paint1_linear_116_16" x1="875.5" y1="2955.68" x2="875.5" y2="2225.32" gradientUnits="userSpaceOnUse">
<stop stop-color="#FEF9F7"/>
<stop offset="1" stop-color="#EFF4F9"/>
</linearGradient>
</defs>
</svg>
