<svg width="1440" height="945" viewBox="0 0 1440 945" fill="none" xmlns="http://www.w3.org/2000/svg">
<path d="M1416 5.9684L1440 2.19211V945H0V30.3189L24 31.3606C48 32.2721 96 34.0952 144 31.3606C170.182 29.798 196.364 26.8407 222.545 23.8834C244.364 21.4189 266.182 18.9545 288 17.2972C315.294 15.1499 342.588 14.2236 369.882 13.2973C390.588 12.5946 411.294 11.8919 432 10.6561C448.478 9.71741 464.955 8.42574 481.433 7.13408C512.955 4.66306 544.478 2.19205 576 2.19205C611.2 2.19205 646.4 5.27328 681.6 8.3545C694.4 9.47495 707.2 10.5954 720 11.5677C768 15.344 816 17.2972 864 14.4325C888 13.0001 912 10.4283 936 7.85651C960 5.28473 984 2.71295 1008 1.28056C1056 -1.45399 1104 0.369051 1152 5.05686C1165.2 6.34601 1178.4 7.85181 1191.6 9.35761C1226.4 13.3274 1261.2 17.2973 1296 17.2973C1344 17.2973 1392 9.74469 1416 5.9684Z" fill="url(#paint0_linear_289_3)"/>
<path fill-rule="evenodd" clip-rule="evenodd" d="M0 719.362L24 725.153C48 730.944 96 742.526 144 742.526C192 742.526 240 730.944 288 723.755C336 716.566 384 713.77 432 717.964C480 722.357 528 733.74 576 738.133C624 742.526 672 739.531 720 733.74C768 728.148 816 719.362 864 719.362C912 719.362 960 728.148 1008 732.342C1056 736.735 1104 736.735 1152 742.526C1200 748.118 1248 759.7 1296 764.093C1344 768.287 1392 765.491 1416 764.093L1440 762.496V942H1416C1392 942 1344 942 1296 942C1248 942 1200 942 1152 942C1104 942 1056 942 1008 942C960 942 912 942 864 942C816 942 768 942 720 942C672 942 624 942 576 942C528 942 480 942 432 942C384 942 336 942 288 942C240 942 192 942 144 942C96 942 48 942 24 942H0V719.362Z" fill="white"/>
<defs>
<linearGradient id="paint0_linear_289_3" x1="875.5" y1="719.68" x2="875.5" y2="-10.6824" gradientUnits="userSpaceOnUse">
<stop stop-color="#FEF9F7"/>
<stop offset="1" stop-color="#EFF4F9"/>
</linearGradient>
</defs>
</svg>
