<svg width="1440" height="1381" viewBox="0 0 1440 1381" fill="none" xmlns="http://www.w3.org/2000/svg">
<rect x="7" width="1440" height="871" fill="url(#paint0_linear_171_4)"/>
<path fill-rule="evenodd" clip-rule="evenodd" d="M6 129.531L40.7516 134.063C74.305 138.595 142.61 147.66 210.915 143.128C280.418 138.595 348.723 120.466 417.028 124.998C485.333 129.531 553.638 156.725 621.943 174.854C690.248 192.984 759.752 202.049 828.057 188.452C896.362 174.854 964.667 138.596 1032.97 147.66C1101.28 156.725 1169.58 211.113 1239.08 229.243C1307.39 247.372 1375.69 229.243 1409.25 220.178L1444 211.113L1444 36.0003L1409.25 36.0002C1375.69 36.0002 1307.39 36.0002 1239.08 36.0002C1169.58 36.0002 1101.28 36.0002 1032.97 36.0002C964.667 36.0002 896.362 36.0002 828.057 36.0001C759.752 36.0001 690.248 36.0001 621.943 36.0001C553.638 36.0001 485.333 36.0001 417.028 36.0001C348.723 36.0001 280.418 36 210.915 36C142.61 36 74.305 36 40.7517 36L6 36L6 129.531Z" fill="white" fill-opacity="0.5"/>
<path fill-rule="evenodd" clip-rule="evenodd" d="M-4 1041.33L56.4583 1017.29C116.917 993.246 237.833 1089.42 358.75 1041.33C479.667 993.246 600.583 945.156 721.5 927.123C842.417 909.089 963.333 921.112 1084.25 927.123C1205.17 933.134 1326.08 933.134 1386.54 933.134H1447V861H1386.54C1326.08 861 1205.17 861 1084.25 861C963.333 861 842.417 861 721.5 861C600.583 861 479.667 861 358.75 861C237.833 861 116.917 861 56.4583 861H-4V1041.33Z" fill="#F1F6FB"/>
<path fill-rule="evenodd" clip-rule="evenodd" d="M3 818.556L38.1142 823.481C72.0175 828.407 141.035 838.259 210.052 833.333C280.281 828.407 349.298 808.704 418.316 838.259C487.333 867.815 556.351 946.63 625.368 961.407C694.386 976.185 764.614 926.926 833.632 892.444C902.649 857.963 971.667 838.259 1040.68 853.037C1109.7 867.815 1178.72 917.074 1248.95 912.148C1317.96 907.222 1386.98 848.111 1420.89 818.556L1456 789V1380.5H1420.89C1386.98 1380.5 1317.96 1380.5 1248.95 1380.5C1178.72 1380.5 1109.7 1380.5 1040.68 1380.5C971.667 1380.5 902.649 1380.5 833.632 1380.5C764.614 1380.5 694.386 1380.5 625.368 1380.5C556.351 1380.5 487.333 1380.5 418.316 1380.5C349.298 1380.5 280.281 1380.5 210.052 1380.5C141.035 1380.5 72.0175 1380.5 38.1142 1380.5H3L3 818.556Z" fill="url(#paint1_linear_171_4)" fill-opacity="0.5"/>
<defs>
<linearGradient id="paint0_linear_171_4" x1="535.849" y1="871" x2="535.849" y2="2.01151e-06" gradientUnits="userSpaceOnUse">
<stop stop-color="#F0F6FB"/>
<stop offset="1" stop-color="#FEF9F7"/>
</linearGradient>
<linearGradient id="paint1_linear_171_4" x1="595.5" y1="845.5" x2="589" y2="1231" gradientUnits="userSpaceOnUse">
<stop offset="0.395278" stop-color="white"/>
<stop offset="1" stop-color="white" stop-opacity="0"/>
</linearGradient>
</defs>
</svg>
